<svg width="33" height="27" viewBox="0 0 33 27" fill="none" xmlns="http://www.w3.org/2000/svg">
<mask id="path-1-inside-1_10603_54460" fill="white">
<path d="M5.5 23H6.5V27H5.5V23Z"/>
</mask>
<path d="M5.5 23H6.5V27H5.5V23Z" fill="white"/>
<path d="M5.5 23V22C4.94772 22 4.5 22.4477 4.5 23H5.5ZM6.5 23H7.5C7.5 22.4477 7.05228 22 6.5 22V23ZM6.5 27V28C7.05228 28 7.5 27.5523 7.5 27H6.5ZM5.5 27H4.5C4.5 27.5523 4.94772 28 5.5 28V27ZM5.5 24H6.5V22H5.5V24ZM5.5 23V27H7.5V23H5.5ZM6.5 26H5.5V28H6.5V26ZM6.5 27V23H4.5V27H6.5Z" fill="#9CA3AF" mask="url(#path-1-inside-1_10603_54460)"/>
<mask id="path-3-inside-2_10603_54460" fill="white">
<path d="M26.5 23H27.5V27H26.5V23Z"/>
</mask>
<path d="M26.5 23H27.5V27H26.5V23Z" fill="white"/>
<path d="M26.5 23V22C25.9477 22 25.5 22.4477 25.5 23H26.5ZM27.5 23H28.5C28.5 22.4477 28.0523 22 27.5 22V23ZM27.5 27V28C28.0523 28 28.5 27.5523 28.5 27H27.5ZM26.5 27H25.5C25.5 27.5523 25.9477 28 26.5 28V27ZM26.5 24H27.5V22H26.5V24ZM26.5 23V27H28.5V23H26.5ZM27.5 26H26.5V28H27.5V26ZM27.5 27V23H25.5V27H27.5Z" fill="#9CA3AF" mask="url(#path-3-inside-2_10603_54460)"/>
<path d="M5 4C5 2.067 6.567 0.5 8.5 0.5H24.5C26.433 0.5 28 2.067 28 4V9.5H5V4Z" fill="white" stroke="#9CA3AF"/>
<mask id="path-6-inside-3_10603_54460" fill="white">
<path d="M0.5 19H32.5V23C32.5 24.1046 31.6046 25 30.5 25H2.5C1.39543 25 0.5 24.1046 0.5 23V19Z"/>
</mask>
<path d="M0.5 19H32.5V23C32.5 24.1046 31.6046 25 30.5 25H2.5C1.39543 25 0.5 24.1046 0.5 23V19Z" fill="white"/>
<path d="M0.5 19H32.5H0.5ZM33.5 23C33.5 24.6569 32.1569 26 30.5 26H2.5C0.843146 26 -0.5 24.6569 -0.5 23H1.5C1.5 23.5523 1.94772 24 2.5 24H30.5C31.0523 24 31.5 23.5523 31.5 23H33.5ZM2.5 26C0.843146 26 -0.5 24.6569 -0.5 23V19H1.5V23C1.5 23.5523 1.94772 24 2.5 24V26ZM33.5 19V23C33.5 24.6569 32.1569 26 30.5 26V24C31.0523 24 31.5 23.5523 31.5 23V19H33.5Z" fill="#9CA3AF" mask="url(#path-6-inside-3_10603_54460)"/>
<path d="M1.26201 18.5L5.16733 9.5H27.8332L31.738 18.5H1.26201Z" fill="white" stroke="#9CA3AF"/>
<path d="M8.82125 5.76902C8.93509 5.03859 9.56411 4.5 10.3034 4.5H22.6966C23.4359 4.5 24.0649 5.03859 24.1787 5.76902L24.6463 8.76902C24.788 9.67855 24.0847 10.5 23.1642 10.5H9.83583C8.91532 10.5 8.21198 9.67855 8.35372 8.76902L8.82125 5.76902Z" fill="#F3F4F6" stroke="#9CA3AF"/>
<ellipse cx="16.6503" cy="6.79045" rx="3.65713" ry="3.65715" fill="white" stroke="#9CA3AF"/>
<path d="M16.6527 10.4475C13.623 10.4475 11.167 12.9035 11.167 15.9332H22.1384C22.1384 12.9035 19.6823 10.4475 16.6527 10.4475Z" fill="white" stroke="#9CA3AF"/>
<path d="M1.26177 18.5L2.99615 14.5H30.0038L31.7382 18.5H1.26177Z" fill="#F3F4F6" stroke="#9CA3AF"/>
</svg>
